<?xml version="1.0" standalone="no"?>
<!DOCTYPE svg PUBLIC "-//W3C//DTD SVG 20010904//EN"
 "http://www.w3.org/TR/2001/REC-SVG-20010904/DTD/svg10.dtd">
<svg version="1.0" xmlns="http://www.w3.org/2000/svg"
 width="800.000000pt" height="800.000000pt" viewBox="0 0 800.000000 800.000000"
 preserveAspectRatio="xMidYMid meet">
<metadata>
Created by potrace 1.14, written by Peter Selinger 2001-2017
</metadata>
<g transform="translate(0.000000,800.000000) scale(0.100000,-0.100000)"
fill="#000000" stroke="none">
<path d="M4050 6933 c-19 -1 -87 -8 -150 -14 -867 -79 -1647 -444 -2223 -1039
-400 -412 -712 -924 -841 -1378 -166 -582 -82 -1098 255 -1574 140 -196 220
-252 364 -253 44 0 101 4 128 9 l47 8 0 -40 c0 -277 250 -506 642 -586 170
-35 427 -46 615 -28 82 9 85 6 76 -55 -8 -50 -38 -109 -111 -219 -91 -136
-132 -216 -132 -257 0 -48 41 -94 122 -137 52 -28 74 -34 128 -34 96 -1 116
15 225 179 112 168 232 313 376 456 109 107 119 114 293 193 127 59 206 116
300 218 l75 82 198 -24 c246 -30 507 -33 653 -7 457 83 672 279 734 669 8 51
22 131 31 178 10 56 14 106 9 147 l-6 62 163 -6 c647 -24 1066 233 1188 730
137 555 -153 1414 -645 1912 -451 457 -1077 724 -1868 800 -142 13 -540 19
-646 8z m379 -76 c16 -14 9 -123 -15 -214 -15 -56 -14 -58 7 -75 11 -10 25
-16 29 -13 19 12 51 123 57 197 7 91 12 94 93 53 56 -28 85 -71 119 -176 32
-98 43 -105 163 -101 106 2 149 -10 210 -59 26 -21 28 -21 53 -5 26 17 26 18
8 38 -65 72 -160 106 -252 90 -32 -6 -68 -8 -79 -5 -20 5 -42 41 -42 71 0 32
-51 127 -88 165 l-36 37 33 0 c30 0 648 -113 694 -126 20 -6 257 -298 257
-316 0 -8 -26 -8 -82 -2 -130 14 -201 11 -232 -9 -37 -24 -63 -70 -71 -125
l-7 -45 -40 46 c-27 32 -47 47 -64 47 -39 0 -30 -37 31 -124 85 -123 115 -223
80 -273 -8 -11 -39 -35 -69 -51 -56 -32 -166 -136 -207 -197 -13 -19 -27 -35
-31 -35 -5 0 -21 19 -38 42 -35 48 -73 162 -96 286 -8 48 -24 121 -35 163 -23
92 -24 171 -4 229 8 23 15 44 15 45 0 2 -11 10 -25 19 l-26 17 -24 -53 c-35
-76 -33 -147 15 -384 22 -109 43 -207 46 -217 7 -21 -2 -20 -146 25 -114 36
-180 75 -222 134 -30 43 -31 43 -59 28 -16 -8 -29 -19 -29 -24 0 -5 25 -35 55
-68 61 -66 142 -113 225 -132 79 -18 208 -81 258 -126 50 -45 53 -60 27 -154
-21 -78 -16 -161 14 -239 23 -57 27 -121 10 -154 -7 -11 -36 -50 -65 -85 -60
-74 -84 -132 -84 -209 0 -52 0 -53 30 -53 25 0 30 4 30 25 0 66 82 224 168
324 l27 30 408 -129 c224 -70 420 -136 435 -146 77 -49 405 -331 421 -361 19
-38 9 -128 -22 -190 -47 -93 -148 -155 -277 -171 -53 -7 -55 -8 -58 -39 -3
-31 -2 -33 30 -33 54 0 158 29 211 58 105 57 180 164 193 276 4 31 10 56 13
56 3 0 44 -7 90 -15 132 -24 257 7 354 87 l28 23 -24 23 -24 22 -26 -20 c-14
-11 -52 -33 -84 -47 -109 -51 -270 -33 -358 40 -19 16 -35 32 -35 36 0 5 20
16 44 25 41 16 136 102 136 124 0 5 -12 14 -27 21 -24 11 -29 10 -50 -18 -37
-47 -88 -73 -142 -73 -63 0 -97 19 -195 110 -137 127 -169 141 -736 316 -338
105 -337 105 -365 198 -30 102 -14 196 56 314 44 77 149 182 220 221 96 54
126 130 94 239 -21 72 -21 120 2 204 25 90 40 96 187 80 173 -18 177 -19 207
-51 32 -34 74 -118 84 -166 l7 -33 -59 0 c-51 0 -122 -11 -160 -25 -10 -3 -10
-10 -1 -30 11 -25 12 -25 107 -19 l96 6 51 -38 c93 -71 213 -176 219 -192 21
-50 21 -75 5 -170 -9 -56 -19 -104 -22 -107 -2 -3 -37 12 -76 32 -93 47 -165
50 -257 8 -128 -58 -164 -66 -263 -63 -74 2 -95 0 -102 -12 -17 -27 -11 -39
28 -49 91 -26 220 -7 326 46 120 61 287 27 350 -70 9 -12 24 -83 35 -156 11
-74 24 -138 29 -143 6 -6 18 -8 28 -6 17 3 19 13 17 80 l-3 77 35 11 c25 8 52
33 91 81 110 138 168 137 361 -7 43 -33 119 -99 168 -149 134 -133 169 -216
200 -470 18 -146 53 -303 85 -385 40 -98 41 -110 21 -155 -29 -66 -133 -170
-207 -206 -140 -69 -227 -15 -274 174 -7 26 -15 47 -19 47 -4 0 -19 -37 -34
-83 -68 -208 -207 -354 -396 -415 -127 -40 -331 -39 -409 3 -15 7 -95 76 -178
152 -82 76 -176 161 -207 190 -31 28 -57 55 -57 60 0 4 21 21 48 38 196 122
311 229 371 342 10 20 8 24 -16 36 -26 14 -27 14 -94 -72 -66 -85 -112 -129
-199 -188 -59 -40 -149 -85 -158 -79 -4 3 -9 22 -10 43 -4 57 -50 201 -84 261
-57 101 -72 211 -42 312 15 51 15 55 -2 67 -30 22 -42 15 -61 -39 -12 -37 -18
-82 -18 -148 l0 -95 64 -126 c53 -106 64 -137 68 -193 6 -74 3 -77 -56 -47
-145 75 -314 92 -539 55 -44 -7 -44 -7 -102 55 -69 72 -125 179 -141 266 -11
58 -10 64 24 150 128 328 68 641 -167 862 -95 89 -167 131 -278 159 -164 43
-218 65 -218 90 0 33 104 126 222 198 25 14 26 19 16 41 -14 30 -18 31 -71 4
-40 -21 -42 -21 -52 -3 -37 66 -84 97 -359 237 -154 78 -281 147 -283 153 -2
5 13 18 32 27 28 13 36 22 33 40 -5 33 -48 34 -107 0 l-50 -27 -80 39 c-45 21
-81 42 -81 46 0 4 33 21 73 37 216 90 382 82 561 -27 l65 -39 22 24 c12 13 20
27 16 30 -3 4 -56 35 -118 69 -61 34 -107 65 -102 68 23 15 219 41 503 67 301
28 429 30 459 7z m1341 -253 c173 -82 416 -243 600 -399 112 -95 269 -260 299
-315 31 -55 25 -53 -127 47 -130 86 -209 119 -307 129 l-65 7 0 -37 c0 -35 1
-36 39 -36 66 0 164 -37 262 -100 52 -33 141 -85 199 -114 58 -30 115 -65 126
-77 27 -30 110 -181 163 -296 142 -310 200 -545 208 -843 4 -143 2 -182 -7
-174 -6 7 -34 133 -61 280 -55 303 -80 383 -149 482 -74 105 -272 272 -406
343 -61 32 -135 38 -187 16 -15 -7 -63 -48 -107 -91 l-78 -79 -22 44 c-21 40
-22 53 -16 148 3 57 11 110 17 117 6 7 33 20 61 30 70 23 173 15 253 -20 l59
-27 18 23 c17 22 16 24 -5 40 -67 53 -205 75 -332 55 l-50 -8 -18 51 c-19 53
-75 118 -167 191 -52 42 -93 117 -94 173 -1 35 2 40 31 50 44 15 66 39 59 64
-6 19 -8 19 -68 4 l-62 -15 -61 67 c-55 61 -195 293 -195 323 0 19 91 -7 190
-53z m-2744 -104 c87 -44 162 -87 167 -95 5 -9 6 -38 2 -64 -7 -48 -7 -49 25
-53 18 -3 33 0 35 6 2 6 6 23 9 39 4 15 13 27 22 27 28 0 416 -202 455 -237
55 -50 53 -79 -10 -146 -53 -57 -71 -86 -71 -115 0 -54 91 -108 239 -143 200
-47 343 -167 432 -365 44 -97 60 -169 60 -275 0 -109 -16 -181 -67 -305 -19
-46 -34 -97 -34 -114 0 -17 16 -80 36 -141 19 -61 34 -112 32 -114 -2 -2 -116
68 -253 156 -138 88 -292 181 -342 207 -51 26 -95 52 -97 59 -3 6 15 71 39
145 47 140 56 222 34 287 -9 26 -15 30 -33 25 -34 -10 -38 -19 -26 -63 6 -23
8 -57 4 -77 -7 -38 -85 -271 -96 -290 -5 -8 -45 -10 -125 -6 -65 2 -156 0
-203 -6 -137 -17 -213 9 -272 93 -29 42 -35 67 -57 260 -8 64 -19 107 -41 151
-30 60 -103 154 -121 154 -5 0 -14 -11 -20 -24 -10 -21 -6 -31 30 -78 64 -85
81 -135 91 -261 10 -121 17 -151 48 -213 23 -44 93 -114 141 -138 37 -19 39
-12 -52 -154 -58 -90 -59 -93 -42 -112 10 -11 23 -20 29 -20 6 0 42 49 80 110
37 60 81 121 96 134 57 48 271 59 415 21 93 -24 184 -72 385 -200 102 -65 259
-163 350 -218 181 -108 201 -124 237 -181 27 -42 90 -276 99 -372 6 -57 4 -68
-34 -150 -22 -49 -50 -123 -62 -164 -28 -98 -59 -150 -109 -185 -23 -15 -41
-29 -41 -31 0 -10 24 -54 30 -54 3 0 28 16 55 35 67 47 100 100 120 193 9 42
38 119 63 172 45 90 47 98 46 175 -2 90 -28 210 -72 331 -16 45 -27 87 -23 93
12 20 122 34 216 27 103 -6 203 -33 291 -76 132 -65 399 -288 562 -470 89 -99
92 -105 68 -108 -14 -2 -26 -6 -26 -9 0 -3 12 -30 26 -58 31 -65 40 -141 24
-220 -6 -33 -22 -120 -35 -193 -32 -182 -76 -276 -178 -376 -102 -102 -201
-153 -387 -200 -198 -50 -476 -58 -748 -22 -155 21 -219 39 -352 101 -63 29
-173 76 -245 105 -71 28 -134 55 -138 59 -4 4 11 21 34 37 67 46 117 117 141
200 12 41 25 74 28 74 29 0 334 -71 345 -80 10 -8 15 -31 15 -69 0 -103 49
-238 105 -291 21 -20 22 -20 39 -2 16 18 14 24 -24 104 -33 69 -42 101 -47
162 -3 42 -2 76 3 76 5 0 69 -21 143 -47 128 -45 134 -46 147 -28 19 25 18 41
-3 50 -99 38 -276 93 -402 125 -84 21 -159 44 -165 50 -8 8 -4 59 12 187 14
106 19 180 13 186 -5 5 -19 7 -32 5 -23 -3 -25 -10 -49 -183 l-25 -180 -30 1
c-165 8 -249 18 -265 34 -9 9 -31 58 -49 108 -19 51 -37 95 -41 97 -5 3 -20 1
-33 -4 l-26 -10 37 -110 c20 -61 33 -113 30 -116 -3 -4 -42 -13 -87 -22 -74
-15 -86 -15 -147 0 -36 9 -93 33 -126 53 -71 43 -135 54 -188 31 -19 -8 -69
-42 -110 -76 -140 -116 -248 -161 -385 -161 -112 0 -386 30 -416 46 -44 22
-125 154 -155 250 -24 77 -26 95 -22 202 5 115 25 198 50 213 7 4 46 11 88 14
146 13 365 56 454 91 52 20 136 20 175 0 17 -9 46 -30 65 -46 49 -43 113 -69
204 -82 92 -12 115 -8 110 23 -4 28 -18 35 -107 48 -192 29 -310 156 -330 353
-6 66 -15 98 -38 139 -243 438 -254 465 -254 596 0 46 5 102 12 126 25 92 83
178 155 228 47 32 52 44 31 74 -13 17 -16 17 -58 -12 -87 -60 -155 -154 -193
-267 -12 -34 -23 -4 -42 114 -27 166 -28 563 -1 633 23 60 68 94 141 109 52
11 56 14 56 40 0 26 -2 28 -45 28 -70 0 -120 -26 -179 -92 l-53 -60 -65 16
c-88 22 -120 20 -293 -14 -155 -31 -239 -38 -233 -20 7 21 255 264 351 343
128 106 340 258 348 249 3 -4 23 -46 43 -93 39 -93 46 -156 21 -199 -20 -36
-18 -45 12 -59 31 -14 36 -9 58 63 22 73 19 120 -15 196 -16 38 -30 82 -30 99
l0 31 58 0 c52 0 65 -5 127 -45 80 -53 100 -59 161 -52 44 5 112 43 186 106
27 22 28 24 12 42 -9 11 -22 19 -28 19 -6 0 -42 -22 -80 -50 -84 -61 -124 -66
-195 -21 -25 16 -66 41 -91 56 l-44 28 144 73 c86 43 158 73 177 73 21 1 87
-27 189 -79z m-859 -822 l28 -13 6 -245 c5 -182 12 -275 27 -360 26 -145 80
-332 132 -458 22 -54 40 -101 40 -104 0 -3 -53 -8 -117 -11 -125 -5 -175 -19
-288 -75 -144 -72 -284 -60 -445 39 l-52 32 -21 -21 c-25 -25 -17 -39 47 -76
45 -27 60 -53 71 -123 11 -69 -3 -116 -62 -215 -65 -109 -100 -197 -109 -271
-5 -44 -3 -55 10 -60 29 -11 45 4 55 54 16 73 55 164 110 254 61 99 75 149 66
233 -6 59 -5 63 12 58 119 -38 260 -21 370 44 38 22 38 22 47 -53 6 -48 27
-95 71 -156 30 -42 31 -69 4 -123 l-21 -41 22 -21 21 -21 23 29 c25 30 46 88
46 125 0 33 -26 89 -60 127 -31 36 -55 104 -45 133 16 52 121 82 218 61 70
-14 100 -38 138 -109 17 -31 44 -80 61 -109 22 -39 33 -75 39 -130 5 -42 19
-103 30 -135 11 -32 19 -60 17 -61 -9 -8 -283 -68 -413 -91 -204 -37 -260 -30
-400 50 l-79 46 -18 -23 c-10 -13 -18 -26 -18 -30 0 -4 47 -32 105 -63 58 -31
105 -60 105 -65 0 -20 -52 -205 -64 -228 -40 -77 -96 -106 -188 -100 -117 9
-235 83 -335 212 -30 40 -30 40 -57 23 l-26 -18 29 -42 c52 -76 159 -167 241
-206 67 -31 84 -35 160 -36 78 0 90 3 141 32 l57 32 17 -72 c21 -88 63 -183
110 -248 19 -27 35 -53 35 -57 0 -4 -33 -18 -72 -31 -81 -25 -227 -96 -291
-140 -79 -54 -130 -74 -199 -79 -77 -5 -153 15 -205 54 -37 28 -258 332 -249
342 13 13 123 19 174 10 29 -5 81 -22 115 -39 82 -38 156 -40 227 -4 50 25 50
26 34 50 -9 14 -17 25 -18 25 -1 0 -28 -9 -60 -21 -69 -24 -97 -20 -176 25
-51 28 -63 31 -180 36 -108 4 -129 8 -156 27 -42 30 -57 71 -52 138 6 73 46
130 116 168 51 28 62 46 43 76 -16 25 -96 -14 -162 -80 -32 -32 -60 -55 -63
-51 -2 4 -14 53 -26 108 -18 86 -20 108 -10 145 28 102 97 191 183 234 82 40
82 40 82 -78 0 -89 4 -111 24 -155 26 -56 29 -58 54 -39 15 11 15 18 2 77 -21
94 -18 151 10 232 l25 72 -24 25 c-79 83 -73 235 13 315 17 17 31 39 31 50 0
12 -34 117 -76 233 -42 117 -74 219 -71 227 12 31 219 146 263 146 39 0 62
-25 101 -111 58 -125 151 -197 267 -206 56 -5 65 -3 93 21 37 31 47 58 68 181
19 110 57 193 118 261 43 48 45 52 31 72 -8 12 -19 22 -23 22 -16 0 -98 -86
-123 -130 -30 -51 -40 -85 -68 -218 -31 -146 -48 -164 -130 -137 -76 25 -135
85 -181 181 -64 134 -116 155 -259 105 -46 -17 -85 -29 -87 -28 -9 9 336 497
372 527 7 6 66 15 131 21 64 6 163 20 218 30 111 20 227 19 273 -3z m-1057
-985 c58 -158 62 -203 25 -257 -14 -20 -32 -50 -40 -66 -26 -50 -17 -163 20
-252 5 -13 -9 -24 -71 -55 -47 -23 -105 -63 -146 -100 -37 -35 -71 -63 -75
-63 -12 0 8 260 28 373 32 176 83 340 174 552 21 48 19 51 85 -132z m5541
-727 c39 -45 104 -76 157 -76 46 0 149 31 188 57 39 25 38 9 -4 -43 -131 -166
-310 -270 -562 -325 -92 -21 -132 -24 -318 -24 -213 0 -214 0 -233 24 -10 13
-19 26 -19 30 0 3 55 6 123 7 141 1 216 17 324 69 91 45 213 158 268 249 22
36 41 66 43 66 1 0 16 -15 33 -34z m-3441 -846 c106 -68 248 -88 385 -55 33 8
100 18 148 22 l88 6 -7 -39 c-28 -159 -176 -263 -333 -234 -32 6 -143 19 -247
30 -225 24 -476 59 -487 69 -4 4 25 24 65 44 40 20 115 70 167 112 111 89 142
96 221 45z m-761 -210 c52 -10 98 -23 103 -28 6 -6 -21 -16 -69 -27 -218 -48
-424 -121 -640 -225 l-143 -69 0 89 0 89 44 30 c100 69 260 135 376 154 71 12
241 5 329 -13z m307 -88 c6 -4 20 -28 31 -53 l21 -46 -127 -6 c-69 -4 -154
-11 -188 -17 -214 -36 -452 -146 -620 -287 -28 -23 -55 -43 -60 -43 -5 0 -24
25 -42 55 -33 55 -33 56 -15 76 37 41 301 160 488 220 83 27 208 56 391 92 85
17 107 19 121 9z m194 -7 c99 -13 96 -11 140 -92 81 -151 190 -259 334 -334
36 -19 66 -37 66 -41 0 -15 -52 -20 -96 -9 -165 42 -433 251 -513 400 -40 75
-40 94 -3 87 15 -3 47 -8 72 -11z m308 -41 c13 -9 37 -45 54 -81 38 -81 122
-167 201 -206 31 -16 57 -30 57 -32 0 -19 -17 -35 -36 -35 -55 0 -204 98 -282
186 -43 48 -112 158 -112 178 0 13 97 5 118 -10z m277 -35 c77 -17 145 -34
152 -38 18 -10 -65 -171 -89 -171 -56 0 -169 93 -221 183 -29 48 -28 72 1 63
10 -3 80 -19 157 -37z m340 -109 c54 -22 100 -42 102 -44 9 -9 -32 -73 -80
-123 -82 -87 -223 -159 -295 -151 l-29 3 83 150 c99 178 114 205 118 205 1 0
47 -18 101 -40z m-1181 11 c6 -9 -98 -134 -160 -192 -99 -93 -246 -168 -407
-209 -63 -15 -95 -19 -115 -12 l-27 9 45 25 c25 14 75 42 112 62 82 45 174
128 234 212 24 34 51 67 59 74 26 22 249 49 259 31z m156 -1 c9 0 110 -118
110 -128 0 -13 -181 -124 -264 -162 -44 -21 -115 -50 -157 -64 -75 -25 -199
-57 -199 -51 0 1 39 26 88 54 112 66 216 161 293 266 58 80 78 97 107 89 8 -2
17 -4 22 -4z m-570 -110 c-73 -93 -195 -175 -317 -215 -48 -15 -93 -14 -93 3
1 11 130 109 197 150 60 36 208 101 231 102 8 0 1 -16 -18 -40z m1875 -40 c4
-7 -34 -52 -86 -103 -79 -78 -111 -101 -197 -145 -61 -31 -116 -52 -135 -52
-32 0 -104 36 -94 47 3 3 34 15 69 27 124 44 234 128 303 231 l36 55 49 -25
c27 -13 52 -30 55 -35z m-1101 -49 c16 -18 15 -21 -36 -73 -139 -142 -300
-232 -458 -257 -32 -5 -98 -5 -160 1 -149 14 -148 16 6 58 194 52 359 125 524
234 47 31 90 56 96 56 6 0 19 -9 28 -19z m122 -86 c7 -18 -37 -99 -79 -145
-67 -74 -115 -95 -240 -104 -85 -6 -90 0 -25 34 63 33 165 111 228 174 40 42
62 56 82 56 16 0 31 -7 34 -15z m170 -61 c45 -16 74 -32 74 -41 0 -27 -96
-110 -172 -148 -58 -28 -92 -38 -145 -42 l-68 -5 70 64 c41 38 86 93 109 132
21 36 43 66 48 66 6 0 43 -12 84 -26z m231 -112 l73 -38 -91 -89 c-106 -104
-193 -210 -382 -462 -152 -202 -155 -205 -252 -183 -65 14 -110 43 -125 79
-15 36 4 84 78 193 27 40 75 124 107 186 42 83 62 113 78 116 12 2 51 9 86 16
115 21 229 87 307 179 20 22 39 41 42 41 4 0 40 -17 79 -38z"/>
<path d="M4167 6702 c-15 -17 -15 -22 8 -79 31 -75 41 -164 26 -220 -11 -39
-54 -103 -70 -103 -4 0 -18 24 -33 53 -63 127 -155 220 -246 248 -47 14 -47
14 -55 -21 -5 -23 0 -28 52 -52 75 -35 146 -104 177 -173 15 -32 29 -90 36
-145 l11 -91 81 79 c45 44 95 87 113 96 44 22 111 20 178 -6 56 -21 58 -21 71
-3 21 28 18 32 -38 61 -37 19 -73 28 -130 31 l-78 6 0 83 c0 101 -14 173 -43
215 -27 40 -39 44 -60 21z"/>
<path d="M6539 5278 c-19 -6 -29 -20 -38 -49 -16 -55 -82 -124 -137 -145 -35
-13 -44 -22 -44 -41 0 -27 -1 -27 107 -41 49 -7 102 -21 131 -36 50 -25 156
-130 167 -166 7 -23 20 -25 53 -7 l23 13 -39 60 c-21 33 -58 76 -81 96 -47 40
-150 98 -175 98 -23 0 -20 12 18 69 31 46 54 124 45 149 -3 5 -15 5 -30 0z"/>
<path d="M3245 6045 l-116 -105 -63 35 c-67 37 -163 57 -341 69 -89 6 -110 -1
-101 -32 6 -17 18 -22 64 -26 335 -34 357 -44 453 -202 45 -74 96 -140 158
-206 51 -53 100 -106 109 -119 23 -33 20 -102 -7 -198 -24 -82 -24 -84 -6 -97
28 -21 37 -14 64 52 22 50 26 75 26 159 l0 101 225 -42 c124 -23 242 -45 262
-49 34 -7 38 -5 44 20 4 14 3 30 -2 35 -5 4 -130 31 -279 59 -148 29 -284 56
-301 62 -54 17 -184 161 -233 257 -35 69 -44 55 122 206 93 85 97 90 81 107
-10 11 -23 19 -31 19 -7 0 -65 -47 -128 -105z"/>
<path d="M4193 4100 c-84 -22 -129 -44 -202 -99 -30 -23 -59 -41 -65 -41 -6 0
-96 20 -201 45 -198 46 -319 65 -418 65 l-58 0 3 -32 c3 -33 4 -33 58 -35 89
-4 249 -23 330 -39 108 -22 240 -63 240 -75 0 -6 -24 -34 -54 -63 -43 -43 -78
-63 -177 -107 -134 -58 -273 -142 -267 -161 12 -35 36 -28 220 61 102 50 188
91 190 91 2 0 2 -55 0 -121 -3 -76 0 -143 8 -176 11 -52 13 -54 38 -48 15 4
28 8 30 10 2 1 -2 40 -8 86 -19 138 7 268 74 373 76 119 165 178 321 210 63
13 79 32 55 61 -16 19 -29 18 -117 -5z"/>
<path d="M4866 3941 c-11 -16 6 -44 74 -126 188 -224 211 -271 217 -450 11
-287 -95 -456 -351 -559 -35 -14 -38 -18 -31 -43 4 -16 8 -30 11 -32 2 -2 43
12 90 32 82 35 104 38 104 15 0 -34 36 -125 60 -151 l29 -32 21 21 21 21 -25
38 c-54 78 -49 168 14 251 75 99 129 248 130 354 0 20 7 45 15 57 31 45 151
56 245 23 30 -11 58 -19 61 -20 5 0 29 45 29 54 0 2 -24 14 -52 26 -58 25
-164 32 -249 17 l-46 -9 -18 74 c-30 123 -59 173 -169 287 -115 117 -172 166
-180 152z"/>
<path d="M2427 3483 c-13 -12 -7 -42 11 -51 9 -5 42 -12 72 -16 71 -9 100 -16
100 -25 0 -4 -29 -28 -65 -54 -65 -47 -65 -47 -49 -72 9 -14 19 -25 23 -25 3
0 30 17 60 38 29 20 65 45 80 55 27 19 55 18 156 -3 54 -11 114 -3 193 27 46
17 47 20 31 56 l-11 24 -49 -18 c-72 -28 -167 -25 -254 7 -117 44 -281 75
-298 57z"/>
</g>
</svg>
